<?xml version="1.0" standalone="no"?>
<!DOCTYPE svg PUBLIC "-//W3C//DTD SVG 20010904//EN"
 "http://www.w3.org/TR/2001/REC-SVG-20010904/DTD/svg10.dtd">
<svg version="1.0" xmlns="http://www.w3.org/2000/svg"
 width="512.000000pt" height="512.000000pt" viewBox="0 0 512.000000 512.000000"
 preserveAspectRatio="xMidYMid meet">
<metadata>
Created by potrace 1.14, written by Peter Selinger 2001-2017
</metadata>
<g transform="translate(0.000000,512.000000) scale(0.100000,-0.100000)"
fill="#000000" stroke="none">
<path d="M3060 4733 c-234 -23 -473 -92 -695 -197 -623 -298 -1054 -869 -1177
-1559 -16 -93 -21 -166 -22 -307 l-1 -185 63 -7 c120 -13 238 -57 340 -127
l60 -41 64 30 c96 45 172 62 299 67 256 11 475 -78 649 -264 83 -89 130 -160
166 -255 35 -89 35 -89 90 -110 127 -48 268 -181 331 -310 116 -237 76 -526
-100 -717 -81 -89 -176 -152 -275 -181 -23 -7 -41 -15 -39 -17 2 -2 55 -13
118 -25 97 -19 149 -22 349 -22 202 -1 253 3 360 22 589 108 1077 424 1402
910 l77 117 -37 2 c-362 24 -620 88 -897 223 -657 320 -1099 953 -1176 1683
-16 153 -6 443 20 582 41 219 103 406 195 590 l53 105 -91 -2 c-50 0 -107 -3
-126 -5z"/>
<path d="M1206 4221 c5 -33 2 -45 -21 -75 l-27 -36 35 0 c37 0 61 -17 72 -50
9 -29 19 -25 38 14 13 28 23 35 58 41 l43 7 -33 30 c-30 27 -33 34 -27 69 7
44 3 47 -38 20 -29 -19 -30 -19 -68 0 l-38 20 6 -40z"/>
<path d="M4373 3730 c-31 -19 -35 -19 -68 -3 -19 9 -37 15 -39 12 -3 -2 -1
-20 3 -39 7 -30 4 -39 -21 -66 l-30 -32 45 -6 c38 -6 46 -12 62 -44 l18 -37
19 43 c15 34 24 42 46 42 50 0 58 15 23 41 -29 22 -31 26 -25 66 3 24 5 43 3
43 -2 0 -19 -9 -36 -20z"/>
<path d="M3785 3471 c-6 -4 -29 -18 -51 -31 l-42 -22 -57 26 c-32 14 -60 24
-62 22 -3 -2 1 -32 8 -66 l12 -61 -47 -48 c-46 -47 -47 -48 -24 -54 13 -4 38
-7 56 -7 49 0 65 -13 92 -69 13 -28 27 -51 30 -51 4 0 19 27 34 59 24 53 30
59 64 65 20 4 50 9 66 12 l28 6 -47 48 -48 48 8 66 c6 63 1 77 -20 57z"/>
<path d="M450 3230 c-37 -76 -36 -75 -127 -85 -35 -4 -63 -10 -63 -13 0 -4 25
-31 55 -62 53 -54 54 -56 46 -95 -5 -22 -12 -57 -15 -78 l-7 -37 74 36 75 37
66 -36 c37 -21 68 -37 70 -37 2 0 -3 35 -9 78 l-13 77 55 56 c61 63 61 64 -38
75 l-61 7 -34 73 c-18 41 -35 74 -37 74 -2 0 -18 -31 -37 -70z"/>
<path d="M4487 2870 l-87 -50 -90 45 c-49 25 -90 41 -90 36 0 -5 7 -40 15 -78
9 -37 18 -78 20 -90 4 -18 -10 -39 -65 -97 l-70 -74 42 -5 c24 -4 69 -9 101
-13 l57 -6 48 -89 47 -89 45 92 45 93 95 17 c52 9 97 17 99 17 2 1 -30 34 -72
74 l-76 72 15 94 c8 52 13 95 11 97 -1 2 -42 -19 -90 -46z"/>
<path d="M1033 2299 c-209 -35 -391 -194 -463 -404 l-17 -49 -64 -12 c-330
-61 -544 -380 -474 -708 37 -174 158 -329 316 -404 46 -22 108 -45 137 -51 75
-16 194 -14 263 4 l58 15 64 -63 c115 -115 262 -177 418 -177 101 0 167 14
258 56 69 32 76 33 95 19 143 -106 218 -135 366 -142 125 -6 199 10 305 65 83
44 189 144 230 218 l29 51 63 -5 c182 -14 369 95 450 264 64 134 64 273 0 409
-60 125 -192 230 -321 254 -26 5 -49 11 -51 13 -3 3 -14 39 -25 82 -60 236
-254 428 -487 482 -88 20 -233 20 -313 -1 -69 -18 -175 -68 -229 -109 l-34
-25 -66 62 c-141 132 -320 187 -508 156z"/>
</g>
</svg>
